.
 
http://www.torrenting.com          :     Once & For all ;)


               www . Torrenting . Com 

(((((((((((((= Enjoy No RAR releases =))))))))))))))))))))


...................................NFO:....................................

.








































          
          
              
              
                    
                    
                    
                    

Straw.Dogs.2011.BRRiP.XviD.AC3-SiC

Poster:
[IMG]http://img202.imageshack.us/img202/6812/strawdogs2011.jpg[/IMG]

IMDB Link: 
http://www.imdb.com/title/tt0999913/

Description:
L.A. screenwriter David Sumner relocates with his wife to her hometown in the deep South. There, while tensions build between them, a brewing conflict with locals becomes a threat to them both. 

MediaInfo:
General
Complete name                    : Straw.Dogs.2011.BRRiP.XviD.AC3-SiC.avi
Format                           : AVI
Format/Info                      : Audio Video Interleave
File size                        : 1.34 GiB
Duration                         : 1h 49mn
Overall bit rate                 : 1 754 Kbps

Video
ID                               : 0
Format                           : MPEG-4 Visual
Format profile                   : Advanced Simple@L5
Format settings, BVOP            : 2
Format settings, QPel            : No
Format settings, GMC             : No warppoints
Format settings, Matrix          : Default (H.263)
Muxing mode                      : Packed bitstream
Codec ID                         : XVID
Codec ID/Hint                    : XviD
Duration                         : 1h 49mn
Bit rate                         : 1 363 Kbps
Width                            : 720 pixels
Height                           : 304 pixels
Display aspect ratio             : 2.35:1
Frame rate                       : 23.976 fps
Color space                      : YUV
Chroma subsampling               : 4:2:0
Bit depth                        : 8 bits
Scan type                        : Progressive
Compression mode                 : Lossy
Bits/(Pixel*Frame)               : 0.260
Stream size                      : 1.04 GiB (78%)
Writing library                  : XviD 1.1.2 (UTC 2006-11-01)

Audio
ID                               : 1
Format                           : AC-3
Format/Info                      : Audio Coding 3
Mode extension                   : CM (complete main)
Codec ID                         : 2000
Duration                         : 1h 49mn
Bit rate mode                    : Constant
Bit rate                         : 384 Kbps
Channel(s)                       : 6 channels
Channel positions                : Front: L C R, Side: L R, LFE
Sampling rate                    : 48.0 KHz
Bit depth                        : 16 bits
Compression mode                 : Lossy
Stream size                      : 301 MiB (22%)
Alignment                        : Aligned on interleaves
Interleave, duration             : 64 ms (1.53 video frames)
Interleave, preload duration     : 192 ms
Title                            : sd


Screenshots:
[IMG]http://img546.imageshack.us/img546/1808/scrncp00001.png[/IMG]
[IMG]http://img716.imageshack.us/img716/3330/scrncp00004.png[/IMG]
[IMG]http://img717.imageshack.us/img717/2451/scrncp00006.png[/IMG]
[IMG]http://img17.imageshack.us/img17/6588/scrncp00014.png[/IMG]
[IMG]http://img843.imageshack.us/img843/6585/scrncp00020.png[/IMG]

Note : Did the usual stuff, turned out nice!

Source: Straw.Dogs.2011.720p.BluRay.x264-Felony

Enjoy!

Respects to T00NG0D, ELEKTRI4KA, PA, YeFsTe, Box, MrRep and everyone in the struggle...